# xmcd
#
# Track frame offsets:
#	182
#	14002
#	34115
#	54340
#	72840
#	90440
#	110882
#	128852
#	149267
#	163850
#
# Disc length: 2480 seconds
#
# Revision: 2
# Processed by: cddbd v1.5.2PL0 Copyright (c) Steve Scherf et al.
# Submitted via: EZCDAudioConverter 6.0.2.1
#
DISCID=8b09ae0a
DTITLE=Oak Ridge Boys - Where The Fast Lane Ends
DYEAR=1987
DGENRE=Country
TTITLE0=This Crazy Love
TTITLE1=A Little Love Can Go A Long, Long Way
TTITLE2=Whatever It Takes
TTITLE3=Love Has A Mind Of It's Own
TTITLE4=Is This Any Way For Us To Say Goodbye
TTITLE5=Where The Fast Lane Ends
TTITLE6=It Takes A Little Rain (To Make Love Grow)
TTITLE7=Looking For Love
TTITLE8=A Little Late To Say Goodbye
TTITLE9=Rainbow At Midnight
EXTD=
EXTT0=
EXTT1=
EXTT2=
EXTT3=
EXTT4=
EXTT5=
EXTT6=
EXTT7=
EXTT8=
EXTT9=
PLAYORDER=
